<?xml version="1.0" encoding="UTF-8"?>
<svg width="800px" height="800px" viewBox="0 0 32 32" xmlns="http://www.w3.org/2000/svg">
  <defs>
    <!-- Vibrant gradient for the sparkle -->
    <linearGradient id="sparkle-gradient" x1="0%" y1="0%" x2="100%" y2="100%">
      <stop offset="0%" style="stop-color:#667eea;stop-opacity:1" />
      <stop offset="30%" style="stop-color:#764ba2;stop-opacity:1" />
      <stop offset="60%" style="stop-color:#f093fb;stop-opacity:1" />
      <stop offset="100%" style="stop-color:#4facfe;stop-opacity:1" />
    </linearGradient>
    
    <!-- Enhanced glow filter for modern effect -->
    <filter id="glow" x="-50%" y="-50%" width="200%" height="200%">
      <feGaussianBlur stdDeviation="2" result="coloredBlur"/>
      <feMerge>
        <feMergeNode in="coloredBlur"/>
        <feMergeNode in="SourceGraphic"/>
      </feMerge>
    </filter>
    
    <!-- Outer glow for extra depth -->
    <filter id="outer-glow" x="-50%" y="-50%" width="200%" height="200%">
      <feGaussianBlur stdDeviation="3" result="coloredBlur"/>
      <feOffset in="coloredBlur" dx="0" dy="0" result="offsetBlur"/>
      <feMerge>
        <feMergeNode in="offsetBlur"/>
      </feMerge>
    </filter>
  </defs>
  
  <!-- Background glow circle for depth -->
  <circle cx="16" cy="16" r="10" fill="url(#sparkle-gradient)" opacity="0.25" filter="url(#outer-glow)"/>
  
  <!-- Main sparkle - centered at (16, 16) -->
  <!-- The sparkle's approximate center is at (12.5, 11) -->
  <!-- To center at (16, 16): translate by (16-12.5, 16-11) = (3.5, 5) -->
  <g transform="translate(3.5, 5)">
    <path d="M18,11a1,1,0,0,1-1,1,5,5,0,0,0-5,5,1,1,0,0,1-2,0,5,5,0,0,0-5-5,1,1,0,0,1,0-2,5,5,0,0,0,5-5,1,1,0,0,1,2,0,5,5,0,0,0,5,5A1,1,0,0,1,18,11Z" 
          fill="url(#sparkle-gradient)" 
          filter="url(#glow)"
          opacity="1"/>
  </g>
</svg>
